<svg width="422" height="442" viewBox="0 0 422 442" fill="none" xmlns="http://www.w3.org/2000/svg">
<path d="M8.04261 0.181815H30.6136L60.8409 73.9602H62.0341L92.2614 0.181815H114.832V102H97.1335V32.0497H96.1889L68.0497 101.702H54.8253L26.6861 31.9006H25.7415V102H8.04261V0.181815ZM145.308 130.636C142.856 130.636 140.585 130.438 138.497 130.04C136.442 129.675 134.802 129.244 133.575 128.747L137.751 114.727C140.37 115.49 142.706 115.854 144.761 115.821C146.816 115.788 148.623 115.142 150.18 113.882C151.771 112.656 153.114 110.601 154.207 107.717L155.749 103.591L128.057 25.6364H147.148L164.747 83.3068H165.543L183.192 25.6364H202.332L171.757 111.247C170.332 115.291 168.443 118.754 166.089 121.638C163.736 124.554 160.853 126.775 157.439 128.3C154.058 129.857 150.015 130.636 145.308 130.636ZM29.4702 271L0.734375 169.182H20.571L38.9162 244.004H39.8608L59.4489 169.182H77.4957L97.1335 244.054H98.0284L116.374 169.182H136.21L107.474 271H89.2784L68.8949 199.558H68.0994L47.6662 271H29.4702ZM162.386 272.541C157.547 272.541 153.188 271.679 149.31 269.956C145.466 268.199 142.416 265.614 140.163 262.2C137.942 258.786 136.832 254.577 136.832 249.572C136.832 245.264 137.627 241.701 139.218 238.884C140.809 236.066 142.98 233.812 145.731 232.122C148.482 230.432 151.581 229.156 155.028 228.294C158.508 227.399 162.104 226.753 165.816 226.355C170.29 225.891 173.92 225.477 176.704 225.112C179.488 224.714 181.51 224.118 182.769 223.322C184.062 222.494 184.708 221.218 184.708 219.494V219.196C184.708 215.451 183.598 212.551 181.377 210.496C179.156 208.441 175.958 207.413 171.782 207.413C167.374 207.413 163.877 208.375 161.292 210.297C158.74 212.219 157.016 214.49 156.121 217.108L139.317 214.722C140.643 210.081 142.831 206.204 145.88 203.088C148.929 199.939 152.658 197.586 157.066 196.028C161.474 194.438 166.346 193.642 171.683 193.642C175.362 193.642 179.024 194.073 182.67 194.935C186.316 195.796 189.647 197.222 192.663 199.21C195.679 201.166 198.098 203.834 199.921 207.214C201.777 210.595 202.705 214.821 202.705 219.892V271H185.404V260.51H184.808C183.714 262.631 182.173 264.62 180.184 266.476C178.228 268.299 175.759 269.774 172.776 270.901C169.826 271.994 166.363 272.541 162.386 272.541ZM167.059 259.317C170.672 259.317 173.804 258.604 176.455 257.179C179.107 255.721 181.145 253.798 182.57 251.412C184.029 249.026 184.758 246.424 184.758 243.607V234.608C184.194 235.072 183.233 235.503 181.874 235.901C180.549 236.298 179.057 236.646 177.4 236.945C175.743 237.243 174.102 237.508 172.478 237.74C170.854 237.972 169.445 238.171 168.252 238.337C165.567 238.701 163.165 239.298 161.043 240.126C158.922 240.955 157.248 242.115 156.022 243.607C154.796 245.065 154.183 246.954 154.183 249.274C154.183 252.589 155.392 255.091 157.812 256.781C160.231 258.472 163.314 259.317 167.059 259.317ZM258.934 194.636V208.557H215.035V194.636H258.934ZM225.873 176.341H243.87V248.031C243.87 250.451 244.235 252.307 244.964 253.599C245.726 254.859 246.72 255.721 247.947 256.185C249.173 256.649 250.532 256.881 252.023 256.881C253.15 256.881 254.178 256.798 255.106 256.632C256.067 256.466 256.796 256.317 257.293 256.185L260.326 270.254C259.365 270.586 257.989 270.95 256.2 271.348C254.443 271.746 252.289 271.978 249.737 272.044C245.229 272.177 241.169 271.497 237.556 270.006C233.943 268.481 231.076 266.128 228.955 262.946C226.867 259.764 225.84 255.787 225.873 251.014V176.341ZM306.475 272.491C298.852 272.491 292.306 270.818 286.837 267.47C281.401 264.123 277.209 259.499 274.259 253.599C271.342 247.667 269.884 240.839 269.884 233.116C269.884 225.361 271.375 218.517 274.358 212.584C277.341 206.618 281.551 201.978 286.986 198.663C292.455 195.316 298.918 193.642 306.375 193.642C312.573 193.642 318.059 194.786 322.831 197.072C327.637 199.326 331.465 202.525 334.316 206.668C337.166 210.777 338.79 215.583 339.188 221.085H321.986C321.29 217.406 319.633 214.34 317.015 211.888C314.429 209.402 310.966 208.159 306.624 208.159C302.945 208.159 299.713 209.153 296.929 211.142C294.145 213.098 291.974 215.915 290.417 219.594C288.892 223.273 288.13 227.681 288.13 232.818C288.13 238.022 288.892 242.496 290.417 246.241C291.941 249.954 294.079 252.821 296.83 254.842C299.614 256.831 302.879 257.825 306.624 257.825C309.275 257.825 311.645 257.328 313.733 256.334C315.855 255.306 317.628 253.831 319.053 251.909C320.478 249.987 321.456 247.65 321.986 244.899H339.188C338.757 250.302 337.166 255.091 334.415 259.267C331.664 263.41 327.919 266.658 323.179 269.011C318.44 271.331 312.872 272.491 306.475 272.491ZM371.963 226.256V271H353.966V169.182H371.565V207.612H372.46C374.25 203.304 377.018 199.906 380.763 197.42C384.541 194.902 389.347 193.642 395.18 193.642C400.483 193.642 405.107 194.752 409.051 196.973C412.995 199.194 416.045 202.442 418.199 206.717C420.386 210.993 421.48 216.213 421.48 222.378V271H403.483V225.162C403.483 220.025 402.157 216.031 399.506 213.18C396.887 210.297 393.208 208.855 388.469 208.855C385.287 208.855 382.437 209.551 379.918 210.943C377.432 212.302 375.476 214.274 374.051 216.859C372.659 219.445 371.963 222.577 371.963 226.256ZM8.04261 440V338.182H26.4872V424.538H71.331V440H8.04261ZM86.544 440V363.636H104.541V440H86.544ZM95.5923 352.798C92.742 352.798 90.2893 351.854 88.2344 349.964C86.1795 348.042 85.152 345.739 85.152 343.054C85.152 340.336 86.1795 338.033 88.2344 336.143C90.2893 334.221 92.742 333.26 95.5923 333.26C98.4759 333.26 100.929 334.221 102.95 336.143C105.005 338.033 106.033 340.336 106.033 343.054C106.033 345.739 105.005 348.042 102.95 349.964C100.929 351.854 98.4759 352.798 95.5923 352.798ZM183.403 383.821L166.997 385.611C166.533 383.954 165.721 382.396 164.561 380.938C163.434 379.479 161.909 378.303 159.987 377.408C158.065 376.513 155.711 376.065 152.927 376.065C149.182 376.065 146.033 376.877 143.481 378.501C140.962 380.125 139.719 382.23 139.752 384.815C139.719 387.036 140.531 388.842 142.189 390.234C143.879 391.626 146.663 392.77 150.541 393.665L163.566 396.449C170.792 398.007 176.161 400.476 179.674 403.857C183.221 407.237 185.011 411.662 185.044 417.131C185.011 421.937 183.602 426.179 180.818 429.858C178.067 433.504 174.239 436.354 169.333 438.409C164.428 440.464 158.794 441.491 152.43 441.491C143.083 441.491 135.56 439.536 129.859 435.625C124.158 431.681 120.761 426.196 119.667 419.169L137.217 417.479C138.012 420.926 139.703 423.527 142.288 425.284C144.873 427.041 148.237 427.919 152.38 427.919C156.656 427.919 160.086 427.041 162.672 425.284C165.29 423.527 166.599 421.357 166.599 418.771C166.599 416.584 165.754 414.777 164.064 413.352C162.406 411.927 159.821 410.833 156.308 410.071L143.282 407.337C135.958 405.812 130.538 403.243 127.025 399.631C123.512 395.985 121.772 391.378 121.805 385.81C121.772 381.103 123.048 377.027 125.633 373.58C128.252 370.099 131.881 367.415 136.521 365.526C141.194 363.603 146.58 362.642 152.679 362.642C161.627 362.642 168.671 364.548 173.808 368.359C178.978 372.171 182.177 377.325 183.403 383.821ZM238.016 363.636V377.557H194.117V363.636H238.016ZM204.955 345.341H222.952V417.031C222.952 419.451 223.317 421.307 224.046 422.599C224.808 423.859 225.802 424.721 227.029 425.185C228.255 425.649 229.614 425.881 231.105 425.881C232.232 425.881 233.26 425.798 234.188 425.632C235.149 425.466 235.878 425.317 236.375 425.185L239.408 439.254C238.447 439.586 237.071 439.95 235.282 440.348C233.525 440.746 231.371 440.978 228.819 441.044C224.311 441.177 220.251 440.497 216.638 439.006C213.025 437.481 210.158 435.128 208.037 431.946C205.949 428.764 204.922 424.787 204.955 420.014V345.341Z" fill="#F2C94C"/>
</svg>
